<?xml version="1.0" encoding="UTF-8"?>
<svg xmlns="http://www.w3.org/2000/svg" xmlns:xlink="http://www.w3.org/1999/xlink" width="310.294" height="104.217" viewBox="0 0 310.294 104.217">
<defs>
<g>
<g id="glyph-0-0">
<path d="M 27.28125 0 L 35.296875 0 L 35.296875 -38.921875 L 27.28125 -38.921875 L 27.28125 -12.4375 L 11.859375 -38.921875 L 3.625 -38.921875 L 3.625 0 L 11.640625 0 L 11.640625 -26.90625 Z M 27.28125 0 "/>
</g>
<g id="glyph-0-1">
<path d="M 27.984375 -0.90625 C 26.703125 -2.140625 26.265625 -2.984375 26.265625 -4.4375 L 26.265625 -20.453125 C 26.265625 -26.328125 22.265625 -29.3125 14.46875 -29.3125 C 6.671875 -29.3125 2.609375 -26 2.140625 -19.328125 L 9.34375 -19.328125 C 9.71875 -22.3125 10.9375 -23.28125 14.625 -23.28125 C 17.515625 -23.28125 18.953125 -22.3125 18.953125 -20.390625 C 18.953125 -19.4375 18.46875 -18.640625 17.671875 -18.15625 C 16.65625 -17.625 16.65625 -17.625 12.96875 -17.03125 L 9.984375 -16.5 C 4.265625 -15.53125 1.5 -12.59375 1.5 -7.421875 C 1.5 -2.25 4.96875 1.234375 10.25 1.234375 C 13.453125 1.234375 16.34375 -0.109375 19 -2.890625 C 19 -1.390625 19.171875 -0.859375 19.859375 0 L 27.984375 0 Z M 18.953125 -11.578125 C 18.953125 -7.265625 16.8125 -4.8125 13.03125 -4.8125 C 10.515625 -4.8125 8.96875 -6.140625 8.96875 -8.28125 C 8.96875 -10.515625 10.140625 -11.578125 13.234375 -12.21875 L 15.796875 -12.703125 C 17.78125 -13.078125 18.09375 -13.1875 18.953125 -13.609375 Z M 18.953125 -11.578125 "/>
</g>
<g id="glyph-0-2">
<path d="M 10.578125 -28.828125 L 3.09375 -28.828125 L 3.09375 11.640625 L 10.578125 11.640625 L 10.578125 -3.421875 C 12.390625 -0.21875 14.953125 1.28125 18.578125 1.28125 C 25.515625 1.28125 30.640625 -5.234375 30.640625 -13.984375 C 30.640625 -18.046875 29.46875 -22.109375 27.546875 -24.765625 C 25.625 -27.5 22.046875 -29.3125 18.578125 -29.3125 C 14.953125 -29.3125 12.390625 -27.765625 10.578125 -24.5625 Z M 16.875 -23.0625 C 20.65625 -23.0625 23.171875 -19.4375 23.171875 -13.875 C 23.171875 -8.59375 20.609375 -4.96875 16.875 -4.96875 C 13.078125 -4.96875 10.578125 -8.59375 10.578125 -13.984375 C 10.578125 -19.4375 13.078125 -23.0625 16.875 -23.0625 Z M 16.875 -23.0625 "/>
</g>
<g id="glyph-0-3">
<path d="M 32.40625 -27.0625 C 32.359375 -35.125 26.96875 -39.5625 17.140625 -39.5625 C 7.796875 -39.5625 2.40625 -35.1875 2.40625 -27.609375 C 2.40625 -21.5625 5.453125 -18.640625 13.34375 -17.140625 L 18.796875 -16.078125 C 24.125 -15.0625 26.109375 -13.5625 26.109375 -10.40625 C 26.109375 -7.15625 23.125 -5.171875 18.265625 -5.171875 C 12.8125 -5.171875 9.765625 -7.46875 9.5 -11.640625 L 1.703125 -11.640625 C 2.1875 -3.3125 7.90625 1.234375 17.828125 1.234375 C 27.875 1.234375 33.796875 -3.421875 33.796875 -11.375 C 33.796875 -17.515625 30.703125 -20.71875 23.484375 -22.109375 L 17.40625 -23.28125 C 11.6875 -24.40625 10.03125 -25.515625 10.03125 -28.34375 C 10.03125 -31.28125 12.59375 -33.15625 16.765625 -33.15625 C 21.84375 -33.15625 24.671875 -31.015625 24.9375 -27.0625 Z M 32.40625 -27.0625 "/>
</g>
<g id="glyph-0-4">
<path d="M 26.75 -7.84375 L 29.3125 0 L 37.53125 0 L 24.078125 -38.921875 L 15.21875 -38.921875 L 1.390625 0 L 9.5625 0 L 12.171875 -7.84375 Z M 24.5625 -14.515625 L 14.421875 -14.515625 L 19.484375 -29.734375 Z M 24.5625 -14.515625 "/>
</g>
<g id="glyph-0-5">
<path d="M 20.5625 -32.25 L 31.921875 -32.25 L 31.921875 -38.921875 L 0.75 -38.921875 L 0.75 -32.25 L 12.546875 -32.25 L 12.546875 0 L 20.5625 0 Z M 20.5625 -32.25 "/>
</g>
</g>
<clipPath id="clip-0">
<path clip-rule="nonzero" d="M 0.804688 0 L 117 0 L 117 101 L 0.804688 101 Z M 0.804688 0 "/>
</clipPath>
<clipPath id="clip-1">
<path clip-rule="nonzero" d="M 0.804688 0 L 144 0 L 144 95 L 0.804688 95 Z M 0.804688 0 "/>
</clipPath>
<clipPath id="clip-2">
<path clip-rule="nonzero" d="M 0.804688 2 L 154 2 L 154 103.441406 L 0.804688 103.441406 Z M 0.804688 2 "/>
</clipPath>
<clipPath id="clip-3">
<path clip-rule="nonzero" d="M 0.804688 8 L 117 8 L 117 103.441406 L 0.804688 103.441406 Z M 0.804688 8 "/>
</clipPath>
<clipPath id="clip-4">
<path clip-rule="nonzero" d="M 0.804688 0 L 120 0 L 120 103.441406 L 0.804688 103.441406 Z M 0.804688 0 "/>
</clipPath>
<clipPath id="clip-5">
<path clip-rule="nonzero" d="M 0.804688 0 L 118 0 L 118 103.441406 L 0.804688 103.441406 Z M 0.804688 0 "/>
</clipPath>
</defs>
<g clip-path="url(#clip-0)">
<path fill="none" stroke-width="4.98138" stroke-linecap="round" stroke-linejoin="miter" stroke="rgb(97.254944%, 48.626709%, 0%)" stroke-opacity="1" stroke-miterlimit="10" d="M -36.822859 21.26078 L -0.0014015 42.520882 " transform="matrix(0.992543, 0, 0, -0.992543, 46.872485, 51.719423)"/>
</g>
<g clip-path="url(#clip-1)">
<path fill="none" stroke-width="4.98138" stroke-linecap="round" stroke-linejoin="miter" stroke="rgb(97.254944%, 48.626709%, 0%)" stroke-opacity="1" stroke-miterlimit="10" d="M -0.0014015 42.520882 L 26.57963 27.175985 " transform="matrix(0.992543, 0, 0, -0.992543, 46.872485, 51.719423)"/>
</g>
<path fill="none" stroke-width="4.98138" stroke-linecap="round" stroke-linejoin="miter" stroke="rgb(5.097961%, 14.509583%, 52.938843%)" stroke-opacity="1" stroke-miterlimit="10" d="M 36.823992 -21.259424 L 36.823992 9.430372 " transform="matrix(0.992543, 0, 0, -0.992543, 46.872485, 51.719423)"/>
<g clip-path="url(#clip-2)">
<path fill="none" stroke-width="4.98138" stroke-linecap="round" stroke-linejoin="miter" stroke="rgb(97.254944%, 48.626709%, 0%)" stroke-opacity="1" stroke-miterlimit="10" d="M 36.823992 -21.259424 L -0.0014015 -42.519526 " transform="matrix(0.992543, 0, 0, -0.992543, 46.872485, 51.719423)"/>
</g>
<g clip-path="url(#clip-3)">
<path fill="none" stroke-width="4.98138" stroke-linecap="round" stroke-linejoin="miter" stroke="rgb(97.254944%, 48.626709%, 0%)" stroke-opacity="1" stroke-miterlimit="10" d="M -0.0014015 -42.519526 L -26.578497 -27.174628 " transform="matrix(0.992543, 0, 0, -0.992543, 46.872485, 51.719423)"/>
</g>
<path fill="none" stroke-width="4.98138" stroke-linecap="round" stroke-linejoin="miter" stroke="rgb(5.097961%, 14.509583%, 52.938843%)" stroke-opacity="1" stroke-miterlimit="10" d="M -36.822859 21.26078 L -36.822859 -9.429015 " transform="matrix(0.992543, 0, 0, -0.992543, 46.872485, 51.719423)"/>
<g clip-path="url(#clip-4)">
<path fill="none" stroke-width="2.49069" stroke-linecap="butt" stroke-linejoin="miter" stroke="rgb(5.097961%, 14.509583%, 52.938843%)" stroke-opacity="1" stroke-miterlimit="10" d="M -35.602824 21.965252 L 38.044027 -20.554952 " transform="matrix(0.992543, 0, 0, -0.992543, 46.872485, 51.719423)"/>
</g>
<g clip-path="url(#clip-5)">
<path fill="none" stroke-width="2.49069" stroke-linecap="butt" stroke-linejoin="miter" stroke="rgb(97.254944%, 48.626709%, 0%)" stroke-opacity="1" stroke-miterlimit="10" d="M -38.042895 20.556308 L 35.603956 -21.963896 " transform="matrix(0.992543, 0, 0, -0.992543, 46.872485, 51.719423)"/>
</g>
<path fill-rule="nonzero" fill="rgb(97.254944%, 48.626709%, 0%)" fill-opacity="1" d="M 52.433594 9.515625 C 52.433594 6.445312 49.945312 3.953125 46.871094 3.953125 C 43.800781 3.953125 41.308594 6.445312 41.308594 9.515625 C 41.308594 12.589844 43.800781 15.078125 46.871094 15.078125 C 49.945312 15.078125 52.433594 12.589844 52.433594 9.515625 Z M 52.433594 9.515625 "/>
<path fill-rule="nonzero" fill="rgb(5.097961%, 14.509583%, 52.938843%)" fill-opacity="1" d="M 88.984375 30.617188 C 88.984375 27.546875 86.492188 25.054688 83.421875 25.054688 C 80.347656 25.054688 77.859375 27.546875 77.859375 30.617188 C 77.859375 33.691406 80.347656 36.179688 83.421875 36.179688 C 86.492188 36.179688 88.984375 33.691406 88.984375 30.617188 Z M 88.984375 30.617188 "/>
<path fill-rule="nonzero" fill="rgb(5.097961%, 14.509583%, 52.938843%)" fill-opacity="1" d="M 88.984375 72.820312 C 88.984375 69.75 86.492188 67.257812 83.421875 67.257812 C 80.347656 67.257812 77.859375 69.75 77.859375 72.820312 C 77.859375 75.894531 80.347656 78.382812 83.421875 78.382812 C 86.492188 78.382812 88.984375 75.894531 88.984375 72.820312 Z M 88.984375 72.820312 "/>
<path fill-rule="nonzero" fill="rgb(97.254944%, 48.626709%, 0%)" fill-opacity="1" d="M 52.433594 93.921875 C 52.433594 90.851562 49.945312 88.359375 46.871094 88.359375 C 43.800781 88.359375 41.308594 90.851562 41.308594 93.921875 C 41.308594 96.996094 43.800781 99.484375 46.871094 99.484375 C 49.945312 99.484375 52.433594 96.996094 52.433594 93.921875 Z M 52.433594 93.921875 "/>
<path fill-rule="nonzero" fill="rgb(5.097961%, 14.509583%, 52.938843%)" fill-opacity="1" d="M 15.886719 72.820312 C 15.886719 69.75 13.394531 67.257812 10.324219 67.257812 C 7.25 67.257812 4.761719 69.75 4.761719 72.820312 C 4.761719 75.894531 7.25 78.382812 10.324219 78.382812 C 13.394531 78.382812 15.886719 75.894531 15.886719 72.820312 Z M 15.886719 72.820312 "/>
<path fill-rule="nonzero" fill="rgb(5.097961%, 14.509583%, 52.938843%)" fill-opacity="1" d="M 15.886719 30.617188 C 15.886719 27.546875 13.394531 25.054688 10.324219 25.054688 C 7.25 25.054688 4.761719 27.546875 4.761719 30.617188 C 4.761719 33.691406 7.25 36.179688 10.324219 36.179688 C 13.394531 36.179688 15.886719 33.691406 15.886719 30.617188 Z M 15.886719 30.617188 "/>
<g fill="rgb(5.097961%, 14.509583%, 52.938843%)" fill-opacity="1">
<use xlink:href="#glyph-0-0" x="102.136279" y="71.310234"/>
</g>
<g fill="rgb(5.097961%, 14.509583%, 52.938843%)" fill-opacity="1">
<use xlink:href="#glyph-0-1" x="141.22294" y="71.310234"/>
<use xlink:href="#glyph-0-2" x="170.911716" y="71.310234"/>
</g>
<g fill="rgb(97.254944%, 48.626709%, 0%)" fill-opacity="1">
<use xlink:href="#glyph-0-3" x="203.537434" y="71.310234"/>
</g>
<g fill="rgb(97.254944%, 48.626709%, 0%)" fill-opacity="1">
<use xlink:href="#glyph-0-4" x="238.085344" y="71.310234"/>
</g>
<g fill="rgb(97.254944%, 48.626709%, 0%)" fill-opacity="1">
<use xlink:href="#glyph-0-5" x="272.206078" y="71.310234"/>
</g>
</svg>
